<?xml version="1.0" encoding="UTF-8"?>
<svg width="526px" height="100px" viewBox="0 0 526 100" version="1.1" xmlns="http://www.w3.org/2000/svg" xmlns:xlink="http://www.w3.org/1999/xlink">
    <!-- Generator: Sketch 49.2 (51160) - http://www.bohemiancoding.com/sketch -->
    <title>DutchX-logo</title>
    <desc>Created with Sketch.</desc>
    <defs>
        <polygon id="path-1" points="0.06 0.341 62.116 0.341 62.116 85.825 0.06 85.825"></polygon>
    </defs>
    <g id="DutchX-logo" stroke="none" stroke-width="1" fill="none" fill-rule="evenodd">
        <g id="dutchX-logo-2018-v2-FINAL">
            <path d="M224.642,88.646 C218.261,88.646 213.328,86.704 209.847,82.816 C206.362,78.931 204.621,73.576 204.621,66.757 L204.621,28.587 L221.341,28.587 L221.341,61.477 C221.341,65.436 222.222,68.425 223.981,70.441 C225.741,72.459 228.233,73.466 231.461,73.466 C234.687,73.466 237.235,72.459 239.106,70.441 C240.976,68.425 241.911,65.436 241.911,61.477 L241.911,28.587 L258.631,28.587 L258.631,87.546 L241.911,87.546 L241.911,79.186 C240.957,80.434 239.912,81.626 238.776,82.761 C237.638,83.899 236.373,84.906 234.981,85.786 C233.587,86.667 232.048,87.364 230.36,87.876 C228.673,88.389 226.767,88.646 224.642,88.646" id="Fill-1" fill="#FFFFFE"></path>
            <path d="M293.499,88.536 C290.932,88.536 288.605,88.261 286.515,87.712 C284.425,87.161 282.626,86.19 281.124,84.796 C279.62,83.404 278.446,81.589 277.605,79.352 C276.761,77.115 276.339,74.274 276.339,70.826 L276.339,42.886 L269.3,42.886 L269.3,28.587 L276.339,28.587 L276.339,13.517 L293.06,13.517 L293.06,28.587 L306.919,28.587 L306.919,42.886 L293.06,42.886 L293.06,68.076 C293.06,71.89 294.855,73.796 298.449,73.796 C301.382,73.796 304.132,73.101 306.699,71.706 L306.699,85.126 C304.939,86.154 302.995,86.979 300.869,87.602 C298.741,88.224 296.286,88.536 293.499,88.536" id="Fill-2" fill="#FFFFFE"></path>
            <path d="M345.419,88.866 C341.019,88.866 336.931,88.058 333.153,86.446 C329.376,84.834 326.131,82.651 323.419,79.901 C320.705,77.151 318.579,73.925 317.039,70.222 C315.499,66.518 314.73,62.576 314.73,58.396 L314.73,58.177 C314.73,53.997 315.499,50.036 317.039,46.296 C318.579,42.556 320.705,39.294 323.419,36.507 C326.131,33.72 329.376,31.52 333.153,29.906 C336.931,28.294 341.091,27.486 345.64,27.486 C351.212,27.486 355.831,28.366 359.499,30.126 C363.165,31.886 366.392,34.306 369.179,37.386 L358.948,48.386 C357.042,46.406 355.079,44.83 353.064,43.656 C351.046,42.484 348.534,41.896 345.528,41.896 C343.401,41.896 341.476,42.319 339.753,43.161 C338.03,44.005 336.526,45.16 335.243,46.626 C333.96,48.095 332.97,49.8 332.274,51.741 C331.576,53.685 331.23,55.757 331.23,57.956 L331.23,58.177 C331.23,60.45 331.576,62.576 332.274,64.556 C332.97,66.536 333.98,68.261 335.299,69.726 C336.618,71.194 338.194,72.349 340.028,73.191 C341.86,74.035 343.915,74.456 346.189,74.456 C348.976,74.456 351.413,73.89 353.503,72.751 C355.595,71.615 357.665,70.095 359.72,68.186 L369.509,78.087 C366.649,81.24 363.386,83.825 359.72,85.841 C356.052,87.857 351.284,88.866 345.419,88.866" id="Fill-3" fill="#FFFFFE"></path>
            <path d="M434.408,49.376 C434.408,42.556 432.665,37.204 429.183,33.316 C425.699,29.431 420.768,27.486 414.388,27.486 C412.26,27.486 410.355,27.744 408.668,28.257 C406.98,28.77 405.44,29.466 404.048,30.347 C402.654,31.227 401.389,32.235 400.253,33.372 C399.115,34.509 398.07,35.7 397.118,36.946 L397.118,7.247 L380.398,7.247 L380.398,87.546 L397.118,87.546 L397.118,54.656 C397.118,50.696 398.053,47.709 399.923,45.691 C401.793,43.675 404.34,42.667 407.568,42.667 C410.794,42.667 413.288,43.675 415.048,45.691 C416.808,47.709 417.688,50.696 417.688,54.656 L417.688,85.019 L434.408,61.274 L434.408,49.376" id="Fill-4" fill="#FFFFFE"></path>
            <g id="Group-8" transform="translate(120.000000, 0.000000)" fill="#FFFFFE">
                <path d="M68.782,33.701 C66.802,29.046 63.997,24.994 60.366,21.546 C56.736,18.101 52.409,15.405 47.387,13.462 C42.362,11.519 36.844,10.546 30.831,10.546 L0.802,10.546 L0.802,25.946 L30.831,25.946 C34.278,25.946 37.432,26.514 40.292,27.644 C43.151,28.775 45.589,30.364 47.606,32.407 C49.622,34.45 51.198,36.895 52.337,39.741 C53.473,42.587 54.042,45.689 54.042,49.046 L54.042,49.265 C54.042,52.695 53.473,55.798 52.337,58.571 C51.198,61.346 49.622,63.754 47.606,65.798 C45.589,67.841 43.151,69.41 40.292,70.505 C37.432,71.599 34.278,72.146 30.831,72.146 L17.741,72.146 L17.741,40.946 L0.802,40.946 L0.802,87.546 L30.831,87.546 C36.844,87.546 42.362,86.556 47.387,84.576 C52.409,82.597 56.736,79.884 60.366,76.436 C63.997,72.99 66.802,68.921 68.782,64.227 C70.762,59.534 71.751,54.474 71.751,49.046 L71.751,48.826 C71.751,43.4 70.762,38.359 68.782,33.701" id="Fill-5"></path>
                <polyline id="Fill-7" points="404.032 0.247 370.838 48.763 405.452 99.546 379.917 99.546 357.646 65.501 335.233 99.546 310.408 99.546 345.021 49.045 311.826 0.247 337.36 0.247 358.071 32.449 379.208 0.247 404.032 0.247"></polyline>
            </g>
            <path d="M54.938,45.363 L54.938,45.366 C66.31,57.017 76.693,70.702 82.916,85.825 C89.964,78.086 94.276,67.81 94.276,56.54 L94.276,13.856 C84.143,19.546 63.729,32.11 54.938,45.363" id="Fill-9" fill="#FFFFFE"></path>
            <path d="M17.884,91.656 C25.062,96.903 33.92,100 43.476,100 L50.801,100 C60.357,100 69.214,96.903 76.393,91.656 C70.546,75.819 59.36,61.41 47.138,49.27 C34.916,61.41 23.73,75.819 17.884,91.656" id="Fill-10" fill="#FFFFFE"></path>
            <g id="Group-14">
                <mask id="mask-2" fill="white">
                    <use xlink:href="#path-1"></use>
                </mask>
                <g id="Clip-12"></g>
                <path d="M47.138,41.512 C47.138,41.512 57.101,30.067 62.116,25.814 C60.794,16.499 52.512,5.999 47.138,0.341 C41.765,5.999 33.482,16.499 32.16,25.814 C37.176,30.067 47.138,41.512 47.138,41.512" id="Fill-11" fill="#FFFFFE" mask="url(#mask-2)"></path>
                <path d="M39.338,45.363 C30.546,32.11 10.134,19.546 0,13.856 L0,56.54 C0,67.81 4.313,78.086 11.36,85.825 C17.583,70.702 27.967,57.017 39.338,45.366 L39.338,45.363" id="Fill-13" fill="#FFFFFE" mask="url(#mask-2)"></path>
            </g>
        </g>
    </g>
</svg>